<svg width="100" height="100" viewBox="0 0 100 100" fill="none" xmlns="http://www.w3.org/2000/svg">
<rect width="100" height="100" fill="#FF26BE"/>
<rect x="3.57129" y="3.57129" width="92.8571" height="92.8571" fill="#2E001F"/>
<path d="M52.0452 74.3093L39.8795 49.99L51.4982 25.6443C51.7171 25.2761 51.5858 25 51.2356 25H44.1873C43.7653 25 43.5854 25.2852 43.3993 25.5983L35.3441 44.0071L27.07 25.5523C26.8949 25.1381 26.7198 25.046 26.282 25.046H18.7521C18.4894 25.046 18.2268 25.3222 18.4895 25.6903L30.0907 49.99L17.9857 74.3554C17.7668 74.6315 17.8106 74.9997 18.2484 74.9997H25.4718C25.822 74.9997 26.0409 74.8616 26.2598 74.4934L34.775 55.4206L43.2458 74.4474C43.4647 74.9076 43.6836 74.9997 44.1651 74.9997H51.7825C52.1328 74.9997 52.2641 74.6775 52.0452 74.3093Z" fill="#FF26BE"/>
<path fill-rule="evenodd" clip-rule="evenodd" d="M71.855 37.6089C61.0856 37.6089 54.2999 45.985 54.2999 56.7081C54.2999 69.2261 61.0007 75.0458 70.5006 74.9997C74.1779 74.9997 78.1153 74.5186 81.7927 72.6777C82.0553 72.5397 82.1429 72.4476 82.1429 72.1715C81.924 70.4687 81.924 68.9039 81.924 67.6613V25.4131C81.924 25.183 81.8365 25.0449 81.4862 25.0449H74.5693C74.3504 25.0449 74.1315 25.229 74.1315 25.5051V37.701C73.2559 37.6089 72.7743 37.6089 71.855 37.6089ZM71.5923 44.4662C72.643 44.4662 73.5186 44.6503 74.1315 44.9264V67.7074C73.2997 68.0755 72.1615 68.2136 71.1108 68.2136C66.1638 68.2136 62.2238 64.808 62.2238 56.3399C62.2238 48.9304 66.0763 44.4662 71.5923 44.4662Z" fill="#FF26BE"/>
</svg>
